<svg xmlns="http://www.w3.org/2000/svg" style="display: none;">
    <symbol id="githubIcon" viewBox="0 0 16 16" fill="currentColor">
        <path
            d="M8 0C3.58 0 0 3.58 0 8c0 3.54 2.29 6.53 5.47 7.59.4.07.55-.17.55-.38 0-.19-.01-.82-.01-1.49-2.01.37-2.53-.49-2.69-.94-.09-.23-.48-.94-.82-1.13-.28-.15-.68-.52-.01-.53.63-.01 1.08.58 1.23.82.72 1.21 1.87.87 2.33.66.07-.52.28-.87.51-1.07-1.78-.2-3.64-.89-3.64-3.95 0-.87.31-1.59.82-2.15-.08-.2-.36-1.02.08-2.12 0 0 .67-.21 2.2.82.64-.18 1.32-.27 2-.27.68 0 1.36.09 2 .27 1.53-1.04 2.2-.82 2.2-.82.44 1.1.16 1.92.08 2.12.51.56.82 1.27.82 2.15 0 3.07-1.87 3.75-3.65 3.95.29.25.54.73.54 1.48 0 1.07-.01 1.93-.01 2.2 0 .21.15.46.55.38A8.012 8.012 0 0 0 16 8c0-4.42-3.58-8-8-8z" />
    </symbol>
    <symbol id="linkedinIcon" viewBox="-143 145 512 512" fill="currentColor">
        <g>
            <path
                d="M113,145c-141.4,0-256,114.6-256,256s114.6,256,256,256s256-114.6,256-256S254.4,145,113,145z M272.8,560.7
                c-20.8,20.8-44.9,37.1-71.8,48.4c-27.8,11.8-57.4,17.7-88,17.7c-30.5,0-60.1-6-88-17.7c-26.9-11.4-51.1-27.7-71.8-48.4
                c-20.8-20.8-37.1-44.9-48.4-71.8C-107,461.1-113,431.5-113,401s6-60.1,17.7-88c11.4-26.9,27.7-51.1,48.4-71.8
                c20.9-20.8,45-37.1,71.9-48.5C52.9,181,82.5,175,113,175s60.1,6,88,17.7c26.9,11.4,51.1,27.7,71.8,48.4
                c20.8,20.8,37.1,44.9,48.4,71.8c11.8,27.8,17.7,57.4,17.7,88c0,30.5-6,60.1-17.7,88C309.8,515.8,293.5,540,272.8,560.7z" />
            <rect x="-8.5" y="348.4" width="49.9" height="159.7" />
            <path
                d="M15.4,273c-18.4,0-30.5,11.9-30.5,27.7c0,15.5,11.7,27.7,29.8,27.7h0.4c18.8,0,30.5-12.3,30.4-27.7
                C45.1,284.9,33.8,273,15.4,273z" />
            <path
                d="M177.7,346.9c-28.6,0-46.5,15.6-49.8,26.6v-25.1H71.8c0.7,13.3,0,159.7,0,159.7h56.1v-86.3c0-4.9-0.2-9.7,1.2-13.1
                c3.8-9.6,12.1-19.6,27-19.6c19.5,0,28.3,14.8,28.3,36.4v82.6H241v-88.8C241,369.9,213.2,346.9,177.7,346.9z" />
        </g>
    </symbol>
    <symbol id="tgIcon" viewBox="0 0 24 24" fill="none">
        <path fill-rule="evenodd" clip-rule="evenodd"
            d="M21.997 12C21.997 17.5228 17.5198 22 11.997 22C6.47415 22 1.99699 17.5228 1.99699 12C1.99699 6.47715 6.47415 2 11.997 2C17.5198 2 21.997 6.47715 21.997 12ZM12.3553 9.38244C11.3827 9.787 9.43876 10.6243 6.52356 11.8944C6.05018 12.0827 5.8022 12.2669 5.77962 12.4469C5.74147 12.7513 6.12258 12.8711 6.64155 13.0343C6.71214 13.0565 6.78528 13.0795 6.86026 13.1038C7.37085 13.2698 8.05767 13.464 8.41472 13.4717C8.7386 13.4787 9.10009 13.3452 9.49918 13.0711C12.2229 11.2325 13.629 10.3032 13.7172 10.2831C13.7795 10.269 13.8658 10.2512 13.9243 10.3032C13.9828 10.3552 13.977 10.4536 13.9708 10.48C13.9331 10.641 12.4371 12.0318 11.6629 12.7515C11.4216 12.9759 11.2504 13.135 11.2154 13.1714C11.137 13.2528 11.0571 13.3298 10.9803 13.4038C10.506 13.8611 10.1502 14.204 11 14.764C11.4083 15.0331 11.7351 15.2556 12.0611 15.4776C12.4171 15.7201 12.7722 15.9619 13.2317 16.2631C13.3487 16.3398 13.4605 16.4195 13.5694 16.4971C13.9837 16.7925 14.3559 17.0579 14.8158 17.0155C15.083 16.991 15.359 16.7397 15.4992 15.9903C15.8305 14.2193 16.4817 10.382 16.6322 8.80081C16.6454 8.66228 16.6288 8.48498 16.6154 8.40715C16.6021 8.32932 16.5743 8.21842 16.4731 8.13633C16.3533 8.03911 16.1683 8.01861 16.0856 8.02C15.7095 8.0267 15.1324 8.22735 12.3553 9.38244Z"
            stroke="currentColor" stroke-linejoin="round" />
    </symbol>
    <symbol id="mailIcon" viewBox="0 0 24 24" fill="currentColor">
        <path fill-rule="evenodd" clip-rule="evenodd"
            d="M3.75 5.25L3 6V18L3.75 18.75H20.25L21 18V6L20.25 5.25H3.75ZM4.5 7.6955V17.25H19.5V7.69525L11.9999 14.5136L4.5 7.6955ZM18.3099 6.75H5.68986L11.9999 12.4864L18.3099 6.75Z"
        />
    </symbol>
    <symbol id="universityIcon" viewBox="0 0 16 16" fill="currentColor">
        <path
            d="M16 6.28a1.23 1.23 0 0 0-.62-1.07l-6.74-4a1.27 1.27 0 0 0-1.28 0l-6.75 4a1.25 1.25 0 0 0 0 2.15l1.92 1.12v2.81a1.28 1.28 0 0 0 .62 1.09l4.25 2.45a1.28 1.28 0 0 0 1.24 0l4.25-2.45a1.28 1.28 0 0 0 .62-1.09V8.45l1.24-.73v2.72H16V6.28zm-3.73 5L8 13.74l-4.22-2.45V9.22l3.58 2.13a1.29 1.29 0 0 0 1.28 0l3.62-2.16zM8 10.27l-6.75-4L8 2.26l6.75 4z" />
    </symbol>
    <symbol id="workIcon" viewBox="0 0 35 35" fill="currentColor">
        <path style="fill-rule:evenodd;clip-rule:evenodd;"
            d="M6,17.5C6,16.672,5.328,16,4.5,16h-3C0.672,16,0,16.672,0,17.5    S0.672,19,1.5,19h3C5.328,19,6,18.328,6,17.5z M7.5,26c-0.414,0-0.789,0.168-1.061,0.439l-2,2C4.168,28.711,4,29.086,4,29.5    C4,30.328,4.671,31,5.5,31c0.414,0,0.789-0.168,1.06-0.44l2-2C8.832,28.289,9,27.914,9,27.5C9,26.672,8.329,26,7.5,26z M17.5,6    C18.329,6,19,5.328,19,4.5v-3C19,0.672,18.329,0,17.5,0S16,0.672,16,1.5v3C16,5.328,16.671,6,17.5,6z M27.5,9    c0.414,0,0.789-0.168,1.06-0.439l2-2C30.832,6.289,31,5.914,31,5.5C31,4.672,30.329,4,29.5,4c-0.414,0-0.789,0.168-1.061,0.44    l-2,2C26.168,6.711,26,7.086,26,7.5C26,8.328,26.671,9,27.5,9z M6.439,8.561C6.711,8.832,7.086,9,7.5,9C8.328,9,9,8.328,9,7.5    c0-0.414-0.168-0.789-0.439-1.061l-2-2C6.289,4.168,5.914,4,5.5,4C4.672,4,4,4.672,4,5.5c0,0.414,0.168,0.789,0.439,1.06    L6.439,8.561z M33.5,16h-3c-0.828,0-1.5,0.672-1.5,1.5s0.672,1.5,1.5,1.5h3c0.828,0,1.5-0.672,1.5-1.5S34.328,16,33.5,16z     M28.561,26.439C28.289,26.168,27.914,26,27.5,26c-0.828,0-1.5,0.672-1.5,1.5c0,0.414,0.168,0.789,0.439,1.06l2,2    C28.711,30.832,29.086,31,29.5,31c0.828,0,1.5-0.672,1.5-1.5c0-0.414-0.168-0.789-0.439-1.061L28.561,26.439z M17.5,29    c-0.829,0-1.5,0.672-1.5,1.5v3c0,0.828,0.671,1.5,1.5,1.5s1.5-0.672,1.5-1.5v-3C19,29.672,18.329,29,17.5,29z M17.5,7    C11.71,7,7,11.71,7,17.5S11.71,28,17.5,28S28,23.29,28,17.5S23.29,7,17.5,7z M17.5,25c-4.136,0-7.5-3.364-7.5-7.5    c0-4.136,3.364-7.5,7.5-7.5c4.136,0,7.5,3.364,7.5,7.5C25,21.636,21.636,25,17.5,25z" />
    </symbol>
    <symbol id="lifeIcon" viewBox="0 0 100 100" fill="currentColor">
        <path
            d="M96.76,66.458c-0.853-0.852-2.15-1.064-3.23-0.534c-6.063,2.991-12.858,4.571-19.655,4.571  C62.022,70.495,50.88,65.88,42.5,57.5C29.043,44.043,25.658,23.536,34.076,6.47c0.532-1.08,0.318-2.379-0.534-3.23  c-0.851-0.852-2.15-1.064-3.23-0.534c-4.918,2.427-9.375,5.619-13.246,9.491c-9.447,9.447-14.65,22.008-14.65,35.369  c0,13.36,5.203,25.921,14.65,35.368s22.008,14.65,35.368,14.65c13.361,0,25.921-5.203,35.369-14.65  c3.872-3.871,7.064-8.328,9.491-13.246C97.826,68.608,97.611,67.309,96.76,66.458z" />
    </symbol>
    <symbol id="starIcon" viewBox="0 0 24 24" fill="currentColor">
        <path
            d="M11.2691 4.41115C11.5006 3.89177 11.6164 3.63208 11.7776 3.55211C11.9176 3.48263 12.082 3.48263 12.222 3.55211C12.3832 3.63208 12.499 3.89177 12.7305 4.41115L14.5745 8.54808C14.643 8.70162 14.6772 8.77839 14.7302 8.83718C14.777 8.8892 14.8343 8.93081 14.8982 8.95929C14.9705 8.99149 15.0541 9.00031 15.2213 9.01795L19.7256 9.49336C20.2911 9.55304 20.5738 9.58288 20.6997 9.71147C20.809 9.82316 20.8598 9.97956 20.837 10.1342C20.8108 10.3122 20.5996 10.5025 20.1772 10.8832L16.8125 13.9154C16.6877 14.0279 16.6252 14.0842 16.5857 14.1527C16.5507 14.2134 16.5288 14.2807 16.5215 14.3503C16.5132 14.429 16.5306 14.5112 16.5655 14.6757L17.5053 19.1064C17.6233 19.6627 17.6823 19.9408 17.5989 20.1002C17.5264 20.2388 17.3934 20.3354 17.2393 20.3615C17.0619 20.3915 16.8156 20.2495 16.323 19.9654L12.3995 17.7024C12.2539 17.6184 12.1811 17.5765 12.1037 17.56C12.0352 17.5455 11.9644 17.5455 11.8959 17.56C11.8185 17.5765 11.7457 17.6184 11.6001 17.7024L7.67662 19.9654C7.18404 20.2495 6.93775 20.3915 6.76034 20.3615C6.60623 20.3354 6.47319 20.2388 6.40075 20.1002C6.31736 19.9408 6.37635 19.6627 6.49434 19.1064L7.4341 14.6757C7.46898 14.5112 7.48642 14.429 7.47814 14.3503C7.47081 14.2807 7.44894 14.2134 7.41394 14.1527C7.37439 14.0842 7.31195 14.0279 7.18708 13.9154L3.82246 10.8832C3.40005 10.5025 3.18884 10.3122 3.16258 10.1342C3.13978 9.97956 3.19059 9.82316 3.29993 9.71147C3.42581 9.58288 3.70856 9.55304 4.27406 9.49336L8.77835 9.01795C8.94553 9.00031 9.02911 8.99149 9.10139 8.95929C9.16534 8.93081 9.2226 8.8892 9.26946 8.83718C9.32241 8.77839 9.35663 8.70162 9.42508 8.54808L11.2691 4.41115Z" />
    </symbol>
    <symbol id="pdfIcon" viewBox="0 0 24 24" fill="currentColor">
        <path
            d="M4 4C4 3.44772 4.44772 3 5 3H14H14.5858C14.851 3 15.1054 3.10536 15.2929 3.29289L19.7071 7.70711C19.8946 7.89464 20 8.149 20 8.41421V20C20 20.5523 19.5523 21 19 21H5C4.44772 21 4 20.5523 4 20V4Z"
            stroke-width="2" stroke-linecap="round" />
        <path d="M20 8H15V3" stroke-width="2" stroke-linecap="round" stroke-linejoin="round" />
        <path
            d="M11.5 13H11V17H11.5C12.6046 17 13.5 16.1046 13.5 15C13.5 13.8954 12.6046 13 11.5 13Z"
            stroke-width="1.5" stroke-linecap="round" stroke-linejoin="round" />
        <path d="M15.5 17V13L17.5 13" stroke-width="1.5" stroke-linecap="round"
            stroke-linejoin="round" />
        <path d="M16 15H17" stroke-width="1.5" stroke-linecap="round" stroke-linejoin="round" />
        <path
            d="M7 17L7 15.5M7 15.5L7 13L7.75 13C8.44036 13 9 13.5596 9 14.25V14.25C9 14.9404 8.44036 15.5 7.75 15.5H7Z"
            stroke-width="1.5" stroke-linecap="round" stroke-linejoin="round" />
    </symbol>
</svg>